<svg width="16" height="14" viewBox="0 0 16 14" fill="none" xmlns="http://www.w3.org/2000/svg">
<path fill-rule="evenodd" clip-rule="evenodd" d="M7.98965 14H8.0008V13.9985H8.00955C10.0659 13.9637 16 8.97927 16 4.25981C16 1.99112 13.9906 0 11.6979 0C9.87402 0 8.64802 1.17098 8 2.02073C7.35038 1.1695 6.12439 0 4.30132 0C2.01015 0 0 1.99112 0 4.25907C0 8.98001 5.93333 13.9645 7.98965 14ZM1.19494 4.26055C1.19494 2.58253 2.64623 1.11103 4.30212 1.11103H4.30292C6.31625 1.11103 7.43955 3.28349 7.45069 3.3057C7.63459 3.72169 8.37178 3.72169 8.55488 3.3057C8.56443 3.28423 9.68853 1.11103 11.7011 1.11103C13.357 1.11103 14.8082 2.58253 14.8082 4.26055C14.8082 8.50999 9.21007 12.8438 8.00159 12.8897C6.79471 12.8438 1.19494 8.50925 1.19494 4.26055Z" fill="white"/>
</svg>
