<?xml version="1.0" encoding="utf-8"?>
<!-- Generator: Adobe Illustrator 24.3.0, SVG Export Plug-In . SVG Version: 6.00 Build 0)  -->
<svg version="1.1" id="katman_1" xmlns="http://www.w3.org/2000/svg" xmlns:xlink="http://www.w3.org/1999/xlink" x="0px" y="0px"
	 viewBox="0 0 3000 1280" style="enable-background:new 0 0 3000 1280;" xml:space="preserve">
<style type="text/css">
	.st0{fill:#A9BEBE;}
	.st1{fill:#092525;}
	.st2{fill:#134040;}
	.st3{fill:#FFFFFF;}
	.st4{fill:#DBDBDB;}
	.st5{fill:url(#SVGID_1_);}
	.st6{fill:url(#SVGID_2_);}
	.st7{fill:url(#SVGID_3_);}
	.st8{fill:url(#SVGID_4_);}
	.st9{fill:url(#SVGID_5_);}
	.st10{fill:url(#SVGID_6_);}
	.st11{fill:url(#SVGID_7_);}
</style>
<rect x="840.24" y="171.51" class="st0" width="250.44" height="76.3"/>
<path class="st0" d="M1113.8,636.48c0,142.16-57.48,270.9-150.47,364.25c-55.14,55.36-122.79,98.29-198.35,124.16
	c-52.48,17.98-108.75,27.74-167.32,27.74c-58.57,0-114.84-9.76-167.32-27.74c-92.3-31.61-57.52-129.24-117.86-203.34
	c-50.82-62.41-202.61-96.33-219.83-177.96c-7.3-34.56-11.13-70.39-11.13-107.1c0-285.05,231.1-516.15,516.15-516.15
	S1113.8,351.44,1113.8,636.48z"/>
<path class="st1" d="M965.79,592.11c0-83.65-67.82-151.47-151.47-151.47H628.17l3.24,60.47H177.62v176.81
	c0,83.65,67.82,151.47,151.47,151.47h373.83l-3.24-60.47H965.8L965.79,592.11L965.79,592.11z"/>
<path class="st2" d="M329.08,145.14c-1.65,0-3.31,0.02-4.96,0.1c-81.35,2.62-146.5,69.4-146.5,151.38v381.32
	c0-82,65.14-148.77,146.5-151.38c1.65-0.08,3.31-0.1,4.96-0.1h784.72V145.14L329.08,145.14z M805.91,216.07
	c0,11.33-9.19,20.52-20.52,20.52c-11.33,0-20.52-9.19-20.52-20.52v-13.69c0-11.33,9.19-20.52,20.52-20.52
	c5.67,0,10.79,2.3,14.52,6.01c3.71,3.73,6.01,8.85,6.01,14.52L805.91,216.07z M897.27,216.07c0,11.33-9.17,20.52-20.52,20.52
	c-11.33,0-20.52-9.19-20.52-20.52v-13.69c0-11.33,9.19-20.52,20.52-20.52c5.69,0,10.81,2.3,14.52,6.01
	c3.71,3.73,6.01,8.85,6.01,14.52L897.27,216.07z M988.64,216.07c0,11.33-9.19,20.52-20.52,20.52s-20.52-9.19-20.52-20.52v-13.69
	c0-11.33,9.19-20.52,20.52-20.52c5.67,0,10.81,2.3,14.52,6.01c3.71,3.73,6.01,8.85,6.01,14.52L988.64,216.07z M1079.99,469.22
	c0,11.33-9.17,20.52-20.52,20.52c-11.33,0-20.52-9.19-20.52-20.52v-13.69c0-11.33,9.19-20.52,20.52-20.52
	c5.67,0,10.81,2.3,14.52,6.01c3.71,3.73,6.01,8.85,6.01,14.52V469.22z M1079.99,216.07c0,11.33-9.17,20.52-20.52,20.52
	c-11.33,0-20.52-9.19-20.52-20.52v-13.69c0-11.33,9.19-20.52,20.52-20.52c5.67,0,10.81,2.3,14.52,6.01
	c3.71,3.73,6.01,8.85,6.01,14.52V216.07z"/>
<path class="st2" d="M965.8,592.11v381.32c0,9.31-0.85,18.45-2.46,27.3c-12.84,70.63-74.68,124.16-149.02,124.16H430.34
	c-170.03-58.23-300.01-202.75-337.69-381.3h721.68C897.97,743.58,965.8,675.76,965.8,592.11L965.8,592.11z"/>
<g>
	<path class="st0" d="M814.86,1033.44c11.34,0,20.52,9.19,20.52,20.52v13.68c0,11.34-9.19,20.52-20.52,20.52
		c-11.34,0-20.52-9.19-20.52-20.52v-13.68C794.33,1042.63,803.52,1033.44,814.86,1033.44z"/>
	<path class="st0" d="M723.49,1033.44c11.34,0,20.52,9.19,20.52,20.52v13.68c0,11.34-9.19,20.52-20.52,20.52
		c-11.34,0-20.52-9.19-20.52-20.52v-13.68C702.96,1042.63,712.15,1033.44,723.49,1033.44z"/>
	<path class="st0" d="M632.13,1033.44c11.34,0,20.52,9.19,20.52,20.52v13.68c0,11.34-9.19,20.52-20.52,20.52
		s-20.52-9.19-20.52-20.52v-13.68C611.6,1042.63,620.79,1033.44,632.13,1033.44z"/>
	<path class="st0" d="M540.76,1033.44c11.34,0,20.52,9.19,20.52,20.52v13.68c0,11.34-9.19,20.52-20.52,20.52
		s-20.52-9.19-20.52-20.52v-13.68C520.24,1042.63,529.43,1033.44,540.76,1033.44z"/>
	<path class="st0" d="M449.4,1033.44c11.34,0,20.52,9.19,20.52,20.52v13.68c0,11.34-9.19,20.52-20.52,20.52s-20.52-9.19-20.52-20.52
		v-13.68C428.88,1042.63,438.06,1033.44,449.4,1033.44z"/>
	<path class="st0" d="M358.04,1033.44c11.34,0,20.52,9.19,20.52,20.52v13.68c0,11.34-9.19,20.52-20.52,20.52
		c-11.33,0-20.52-9.19-20.52-20.52v-13.68C337.51,1042.63,346.7,1033.44,358.04,1033.44z"/>
	<path class="st0" d="M814.86,780.3c11.34,0,20.52,9.19,20.52,20.52v13.68c0,11.34-9.19,20.52-20.52,20.52
		c-11.34,0-20.52-9.19-20.52-20.52v-13.68C794.33,789.49,803.52,780.3,814.86,780.3z"/>
	<path class="st0" d="M895.98,997.22c11.34,0,20.52,9.19,20.52,20.52v13.68c0,11.34-9.19,20.52-20.52,20.52s-20.52-9.19-20.52-20.52
		v-13.68C875.45,1006.41,884.64,997.22,895.98,997.22z"/>
	<path class="st0" d="M895.98,744.07c11.34,0,20.52,9.19,20.52,20.52v13.68c0,11.34-9.19,20.52-20.52,20.52s-20.52-9.19-20.52-20.52
		v-13.68C875.45,753.26,884.64,744.07,895.98,744.07z"/>
	<path class="st0" d="M723.49,780.3c11.34,0,20.52,9.19,20.52,20.52v13.68c0,11.34-9.19,20.52-20.52,20.52
		c-11.34,0-20.52-9.19-20.52-20.52v-13.68C702.96,789.49,712.15,780.3,723.49,780.3z"/>
	<path class="st0" d="M632.13,780.3c11.34,0,20.52,9.19,20.52,20.52v13.68c0,11.34-9.19,20.52-20.52,20.52s-20.52-9.19-20.52-20.52
		v-13.68C611.6,789.49,620.79,780.3,632.13,780.3z"/>
	<path class="st0" d="M540.76,780.3c11.34,0,20.52,9.19,20.52,20.52v13.68c0,11.34-9.19,20.52-20.52,20.52s-20.52-9.19-20.52-20.52
		v-13.68C520.24,789.49,529.43,780.3,540.76,780.3z"/>
	<path class="st0" d="M449.4,780.3c11.34,0,20.52,9.19,20.52,20.52v13.68c0,11.34-9.19,20.52-20.52,20.52s-20.52-9.19-20.52-20.52
		v-13.68C428.88,789.49,438.06,780.3,449.4,780.3z"/>
	<path class="st0" d="M358.04,780.3c11.34,0,20.52,9.19,20.52,20.52v13.68c0,11.34-9.19,20.52-20.52,20.52
		c-11.33,0-20.52-9.19-20.52-20.52v-13.68C337.51,789.49,346.7,780.3,358.04,780.3z"/>
	<path class="st0" d="M266.67,780.3c11.34,0,20.52,9.19,20.52,20.52v13.68c0,11.34-9.19,20.52-20.52,20.52
		c-11.34,0-20.52-9.19-20.52-20.52v-13.68C246.15,789.49,255.34,780.3,266.67,780.3z"/>
	<path class="st0" d="M175.31,780.3c11.34,0,20.52,9.19,20.52,20.52v13.68c0,11.34-9.19,20.52-20.52,20.52
		c-11.34,0-20.52-9.19-20.52-20.52v-13.68C154.78,789.49,163.97,780.3,175.31,780.3z"/>
</g>
<path class="st1" d="M324.13,145.25v381.31c-81.36,2.61-146.51,69.39-146.51,151.37V296.61
	C177.62,214.63,242.77,147.85,324.13,145.25L324.13,145.25z"/>
<g>
	<path class="st0" d="M328.57,236.59c-11.34,0-20.52-9.19-20.52-20.52v-13.68c0-11.34,9.19-20.52,20.52-20.52
		s20.52,9.19,20.52,20.52v13.68C349.09,227.4,339.9,236.59,328.57,236.59z"/>
	<path class="st0" d="M419.93,236.59c-11.34,0-20.52-9.19-20.52-20.52v-13.68c0-11.34,9.19-20.52,20.52-20.52
		s20.52,9.19,20.52,20.52v13.68C440.45,227.4,431.26,236.59,419.93,236.59L419.93,236.59z"/>
	<path class="st0" d="M511.29,236.59c-11.34,0-20.52-9.19-20.52-20.52v-13.68c0-11.34,9.19-20.52,20.52-20.52
		s20.52,9.19,20.52,20.52v13.68C531.82,227.4,522.63,236.59,511.29,236.59z"/>
	<path class="st0" d="M602.66,236.59c-11.34,0-20.52-9.19-20.52-20.52v-13.68c0-11.34,9.19-20.52,20.52-20.52
		c11.34,0,20.52,9.19,20.52,20.52v13.68C623.18,227.4,613.99,236.59,602.66,236.59z"/>
	<path class="st0" d="M694.02,236.59c-11.34,0-20.52-9.19-20.52-20.52v-13.68c0-11.34,9.19-20.52,20.52-20.52
		s20.52,9.19,20.52,20.52v13.68C714.55,227.4,705.36,236.59,694.02,236.59z"/>
	<path class="st0" d="M328.57,489.74c-11.34,0-20.52-9.19-20.52-20.52v-13.68c0-11.34,9.19-20.52,20.52-20.52
		s20.52,9.19,20.52,20.52v13.68C349.09,480.55,339.9,489.74,328.57,489.74L328.57,489.74z"/>
	<path class="st0" d="M247.44,272.82c-11.34,0-20.52-9.19-20.52-20.52v-13.69c0-11.34,9.19-20.52,20.52-20.52
		s20.52,9.19,20.52,20.52v13.68C267.97,263.63,258.78,272.82,247.44,272.82z"/>
	<path class="st0" d="M247.44,525.97c-11.34,0-20.52-9.19-20.52-20.52v-13.68c0-11.34,9.19-20.52,20.52-20.52
		s20.52,9.19,20.52,20.52v13.68C267.97,516.78,258.78,525.97,247.44,525.97z"/>
	<path class="st0" d="M419.93,489.74c-11.34,0-20.52-9.19-20.52-20.52v-13.68c0-11.34,9.19-20.52,20.52-20.52
		s20.52,9.19,20.52,20.52v13.68C440.45,480.55,431.26,489.74,419.93,489.74L419.93,489.74z"/>
	<path class="st0" d="M511.29,489.74c-11.34,0-20.52-9.19-20.52-20.52v-13.68c0-11.34,9.19-20.52,20.52-20.52
		s20.52,9.19,20.52,20.52v13.68C531.82,480.55,522.63,489.74,511.29,489.74L511.29,489.74z"/>
	<path class="st0" d="M602.66,489.74c-11.34,0-20.52-9.19-20.52-20.52v-13.68c0-11.34,9.19-20.52,20.52-20.52
		c11.34,0,20.52,9.19,20.52,20.52v13.68C623.18,480.55,613.99,489.74,602.66,489.74L602.66,489.74z"/>
	<path class="st0" d="M694.02,489.74c-11.34,0-20.52-9.19-20.52-20.52v-13.68c0-11.34,9.19-20.52,20.52-20.52
		s20.52,9.19,20.52,20.52v13.68C714.55,480.55,705.36,489.74,694.02,489.74L694.02,489.74z"/>
	<path class="st0" d="M785.38,489.74c-11.34,0-20.52-9.19-20.52-20.52v-13.68c0-11.34,9.19-20.52,20.52-20.52
		c11.34,0,20.52,9.19,20.52,20.52v13.68C805.91,480.55,796.72,489.74,785.38,489.74L785.38,489.74z"/>
	<path class="st0" d="M876.75,489.74c-11.34,0-20.52-9.19-20.52-20.52v-13.68c0-11.34,9.19-20.52,20.52-20.52
		c11.34,0,20.52,9.19,20.52,20.52v13.68C897.27,480.55,888.08,489.74,876.75,489.74L876.75,489.74z"/>
	<path class="st0" d="M968.11,489.74c-11.34,0-20.52-9.19-20.52-20.52v-13.68c0-11.34,9.19-20.52,20.52-20.52
		s20.52,9.19,20.52,20.52v13.68C988.63,480.55,979.45,489.74,968.11,489.74L968.11,489.74z"/>
</g>
<path class="st3" d="M766.55,578.56L585.76,474.18c-40.98-23.66-92.21,5.92-92.21,53.24v208.76c0,47.32,51.23,76.9,92.21,53.24
	l180.79-104.38C807.53,661.37,807.53,602.22,766.55,578.56L766.55,578.56z"/>
<path class="st4" d="M582.18,791.33c-40.32,20-88.63-9.21-88.63-55.16V527.41c0-45.95,48.31-75.16,88.63-55.16
	c-19.8,9.76-34.34,29.94-34.34,55.16v208.76C547.85,761.39,562.38,781.58,582.18,791.33L582.18,791.33z"/>
<linearGradient id="SVGID_1_" gradientUnits="userSpaceOnUse" x1="1315.8828" y1="2246.3228" x2="1325.0742" y2="233.3866">
	<stop  offset="0" style="stop-color:#FFFFFF"/>
	<stop  offset="0.0631" style="stop-color:#DADADA"/>
	<stop  offset="0.1602" style="stop-color:#A7A7A7"/>
	<stop  offset="0.262" style="stop-color:#7B7B7B"/>
	<stop  offset="0.3666" style="stop-color:#555555"/>
	<stop  offset="0.4748" style="stop-color:#363636"/>
	<stop  offset="0.5875" style="stop-color:#1E1E1E"/>
	<stop  offset="0.7069" style="stop-color:#0D0D0D"/>
	<stop  offset="0.8374" style="stop-color:#030303"/>
	<stop  offset="1" style="stop-color:#000000"/>
</linearGradient>
<path class="st5" d="M1201.7,430.45h110.14v75.38h2.34c14.84-53.12,50.39-82.02,99.6-82.02c13.28,0,24.61,1.95,32.42,4.3v100.38
	c-9.37-3.91-25-6.64-41.4-6.64c-56.24,0-89.05,34.37-89.05,93.35v233.96H1201.7V430.45z"/>
<linearGradient id="SVGID_2_" gradientUnits="userSpaceOnUse" x1="1650.9645" y1="2115.0898" x2="1675.4751" y2="321.7282">
	<stop  offset="0" style="stop-color:#FFFFFF"/>
	<stop  offset="0.0631" style="stop-color:#DADADA"/>
	<stop  offset="0.1602" style="stop-color:#A7A7A7"/>
	<stop  offset="0.262" style="stop-color:#7B7B7B"/>
	<stop  offset="0.3666" style="stop-color:#555555"/>
	<stop  offset="0.4748" style="stop-color:#363636"/>
	<stop  offset="0.5875" style="stop-color:#1E1E1E"/>
	<stop  offset="0.7069" style="stop-color:#0D0D0D"/>
	<stop  offset="0.8374" style="stop-color:#030303"/>
	<stop  offset="1" style="stop-color:#000000"/>
</linearGradient>
<path class="st6" d="M1463.78,636.09c0-135.53,82.02-217.95,207.4-217.95c125.38,0,207.4,82.02,207.4,217.95
	c0,137.88-80.85,218.73-207.4,218.73S1463.78,773.58,1463.78,636.09z M1762.57,636.48c0-83.19-35.93-131.24-91.4-131.24
	c-55.46,0-91.79,48.04-91.79,131.24c0,83.98,35.54,131.24,91.79,131.24C1727.03,767.72,1762.57,720.46,1762.57,636.48z"/>
<linearGradient id="SVGID_3_" gradientUnits="userSpaceOnUse" x1="2625.905" y1="2882.9888" x2="2766.8413" y2="15.244">
	<stop  offset="0" style="stop-color:#FFFFFF"/>
	<stop  offset="0.0631" style="stop-color:#DADADA"/>
	<stop  offset="0.1602" style="stop-color:#A7A7A7"/>
	<stop  offset="0.262" style="stop-color:#7B7B7B"/>
	<stop  offset="0.3666" style="stop-color:#555555"/>
	<stop  offset="0.4748" style="stop-color:#363636"/>
	<stop  offset="0.5875" style="stop-color:#1E1E1E"/>
	<stop  offset="0.7069" style="stop-color:#0D0D0D"/>
	<stop  offset="0.8374" style="stop-color:#030303"/>
	<stop  offset="1" style="stop-color:#000000"/>
</linearGradient>
<path class="st7" d="M2732.78,418.15c105.07,0,173.42,53.12,174.98,134.36h-105.07c-2.34-33.59-29.29-54.29-71.48-54.29
	c-39.45,0-65.23,17.97-65.23,44.92c0,20.7,17.97,34.76,54.68,43.35l80.07,17.19c83.98,18.75,117.96,51.95,117.96,114.44
	c0,82.41-75.77,136.7-186.31,136.7c-111.71,0-180.45-53.9-186.7-135.53H2657c5.47,35.15,33.2,55.46,78.51,55.46
	c43.35,0,69.52-17.19,69.52-44.53c0-21.09-14.06-32.81-51.56-41.79l-77.33-17.19c-79.29-17.97-119.91-59.37-119.91-121.08
	C2556.23,470.49,2625.37,418.15,2732.78,418.15z"/>
<g>
	<linearGradient id="SVGID_4_" gradientUnits="userSpaceOnUse" x1="2451.5825" y1="1114.9447" x2="2225.3333" y2="490.7146">
		<stop  offset="0" style="stop-color:#FFFFFF"/>
		<stop  offset="0.0631" style="stop-color:#DADADA"/>
		<stop  offset="0.1602" style="stop-color:#A7A7A7"/>
		<stop  offset="0.262" style="stop-color:#7B7B7B"/>
		<stop  offset="0.3666" style="stop-color:#555555"/>
		<stop  offset="0.4748" style="stop-color:#363636"/>
		<stop  offset="0.5875" style="stop-color:#1E1E1E"/>
		<stop  offset="0.7069" style="stop-color:#0D0D0D"/>
		<stop  offset="0.8374" style="stop-color:#030303"/>
		<stop  offset="1" style="stop-color:#000000"/>
	</linearGradient>
	<polygon class="st8" points="2414.28,843.98 2266.55,428.98 2158.16,428.98 2289.78,843.98 	"/>
	<linearGradient id="SVGID_5_" gradientUnits="userSpaceOnUse" x1="2171.3264" y1="1114.9447" x2="1945.0769" y2="490.7146">
		<stop  offset="0" style="stop-color:#FFFFFF"/>
		<stop  offset="0.0631" style="stop-color:#DADADA"/>
		<stop  offset="0.1602" style="stop-color:#A7A7A7"/>
		<stop  offset="0.262" style="stop-color:#7B7B7B"/>
		<stop  offset="0.3666" style="stop-color:#555555"/>
		<stop  offset="0.4748" style="stop-color:#363636"/>
		<stop  offset="0.5875" style="stop-color:#1E1E1E"/>
		<stop  offset="0.7069" style="stop-color:#0D0D0D"/>
		<stop  offset="0.8374" style="stop-color:#030303"/>
		<stop  offset="1" style="stop-color:#000000"/>
	</linearGradient>
	<polygon class="st9" points="2134.03,843.98 1986.3,428.98 1877.9,428.98 2009.52,843.98 	"/>
	
		<linearGradient id="SVGID_6_" gradientUnits="userSpaceOnUse" x1="7010.9727" y1="258.0628" x2="6829.832" y2="757.8364" gradientTransform="matrix(-1 0 0 1 9012.3447 0)">
		<stop  offset="0" style="stop-color:#FFFFFF"/>
		<stop  offset="0.0428" style="stop-color:#D8D8D8"/>
		<stop  offset="0.0994" style="stop-color:#ABABAB"/>
		<stop  offset="0.1617" style="stop-color:#828282"/>
		<stop  offset="0.2282" style="stop-color:#5F5F5F"/>
		<stop  offset="0.3002" style="stop-color:#414141"/>
		<stop  offset="0.3796" style="stop-color:#292929"/>
		<stop  offset="0.4691" style="stop-color:#171717"/>
		<stop  offset="0.5749" style="stop-color:#0A0A0A"/>
		<stop  offset="0.7125" style="stop-color:#020202"/>
		<stop  offset="1" style="stop-color:#000000"/>
	</linearGradient>
	<polygon class="st10" points="2010.47,843.98 2158.2,428.98 2266.59,428.98 2134.97,843.98 	"/>
	
		<linearGradient id="SVGID_7_" gradientUnits="userSpaceOnUse" x1="6735.165" y1="258.0628" x2="6554.0244" y2="757.8364" gradientTransform="matrix(-1 0 0 1 9012.3447 0)">
		<stop  offset="0" style="stop-color:#FFFFFF"/>
		<stop  offset="0.0428" style="stop-color:#D8D8D8"/>
		<stop  offset="0.0994" style="stop-color:#ABABAB"/>
		<stop  offset="0.1617" style="stop-color:#828282"/>
		<stop  offset="0.2282" style="stop-color:#5F5F5F"/>
		<stop  offset="0.3002" style="stop-color:#414141"/>
		<stop  offset="0.3796" style="stop-color:#292929"/>
		<stop  offset="0.4691" style="stop-color:#171717"/>
		<stop  offset="0.5749" style="stop-color:#0A0A0A"/>
		<stop  offset="0.7125" style="stop-color:#020202"/>
		<stop  offset="1" style="stop-color:#000000"/>
	</linearGradient>
	<polygon class="st11" points="2286.27,843.98 2434,428.98 2542.4,428.98 2410.78,843.98 	"/>
</g>
</svg>
