<svg width="9" height="15" viewBox="0 0 9 15" fill="none" xmlns="http://www.w3.org/2000/svg">
<path fill-rule="evenodd" clip-rule="evenodd" d="M4.5 15C4.1837 15 3.92699 14.748 3.92699 14.4375V0.5625C3.92699 0.252 4.1837 0 4.5 0C4.8163 0 5.073 0.252 5.073 0.5625V14.4375C5.073 14.748 4.8163 15 4.5 15ZM8.42699 15C8.10993 15 7.85399 14.748 7.85399 14.4375V4.4175C7.85399 4.10625 8.10993 3.855 8.42699 3.855C8.74406 3.855 9 4.10625 9 4.4175V14.4375C9 14.748 8.74253 15 8.42699 15ZM0 14.4375C0 14.748 0.25747 15 0.573005 15C0.890068 15 1.14601 14.748 1.14601 14.4375V6.72975C1.14601 6.41925 0.88854 6.16725 0.573005 6.16725C0.25747 6.16725 0 6.41925 0 6.72975V14.4375Z" fill="white"/>
</svg>
